<svg width="59" height="51" viewBox="0 0 59 51" fill="none" xmlns="http://www.w3.org/2000/svg">
<g clip-path="url(#clip0_23_465)">
<path d="M54.0827 33.7801V8.56668C54.0827 6.25545 51.8702 4.36444 49.166 4.36444H19.666C16.9618 4.36444 14.7493 6.25545 14.7493 8.56668V33.7801C14.7493 36.0913 16.9618 37.9823 19.666 37.9823H49.166C51.8702 37.9823 54.0827 36.0913 54.0827 33.7801ZM27.041 25.3756L32.0314 31.0696L39.3327 23.2745L49.166 33.7801H19.666L27.041 25.3756ZM4.91602 12.7689V42.1846C4.91602 44.4958 7.12852 46.3868 9.83268 46.3868H44.2494V42.1846H9.83268V12.7689H4.91602Z" fill="#C9C9C9"/>
</g>
<defs>
<clipPath id="clip0_23_465">
<rect width="59" height="50.4268" fill="white" transform="translate(0 0.162201)"/>
</clipPath>
</defs>
</svg>
